<svg xmlns="http://www.w3.org/2000/svg" width="367" height="361" viewBox="0 0 367 361">
<g>
<path d="M 207.00 357.54 C170.92,362.41 130.72,354.74 98.50,336.83 C51.84,310.89 20.32,267.64 8.88,213.88 C5.90,199.84 5.60,165.43 8.34,151.50 C16.45,110.33 35.42,75.75 64.07,49.89 C96.87,20.30 139.45,4.00 184.00,4.00 C212.61,4.00 236.68,9.51 262.54,21.99 C316.96,48.24 354.52,101.47 361.08,161.67 C362.62,175.85 361.65,201.39 359.07,214.25 C352.37,247.61 335.76,279.79 313.06,303.35 C283.32,334.22 248.69,351.92 207.00,357.54 ZM 164.00 350.98 C167.57,351.48 178.60,351.71 188.50,351.49 C213.47,350.94 231.77,346.98 252.98,337.54 C294.52,319.05 327.22,284.44 344.38,240.83 C353.43,217.81 357.51,179.86 353.43,156.55 C347.85,124.66 337.62,100.70 319.46,77.01 C292.78,42.20 252.47,18.71 208.77,12.50 C195.89,10.67 172.46,10.64 160.00,12.43 C120.86,18.08 83.33,37.80 57.56,66.25 C29.16,97.61 13.00,139.93 13.00,182.95 C13.00,198.14 17.30,222.38 22.62,237.15 C44.99,299.32 97.66,341.72 164.00,350.98 ZM 181.51 303.90 C176.31,306.64 167.91,306.66 162.76,303.94 C158.83,301.86 155.01,295.90 154.99,291.79 C154.98,290.27 153.09,287.84 149.34,284.56 C142.75,278.77 136.85,270.10 134.98,263.44 C133.91,259.61 132.80,258.14 129.08,255.63 C110.87,243.35 101.00,224.29 101.00,201.43 L 101.00 192.17 L 96.06 188.54 C87.30,182.11 77.83,171.02 73.33,161.91 C60.36,135.68 66.43,114.00 86.75,114.00 C96.82,114.00 100.21,116.52 106.00,128.31 C107.93,132.23 110.03,135.59 110.67,135.78 C111.31,135.96 113.68,132.57 115.94,128.24 C118.19,123.90 122.35,117.77 125.17,114.60 C135.47,103.04 153.09,93.37 168.22,90.96 C177.38,89.51 200.87,90.17 205.88,92.03 C208.74,93.10 209.67,93.04 212.03,91.64 C213.56,90.74 215.92,90.00 217.28,90.00 C221.25,90.00 222.54,87.65 221.04,83.13 C219.25,77.69 219.89,76.04 225.51,71.79 C231.27,67.43 235.36,66.92 239.36,70.07 C243.11,73.02 246.14,72.25 248.22,67.83 C250.30,63.39 251.83,62.83 259.15,63.85 C267.17,64.97 270.00,67.06 270.00,71.90 C270.00,77.08 272.02,78.75 276.39,77.18 C278.18,76.53 280.53,76.00 281.62,76.00 C285.38,76.00 293.00,85.70 293.00,90.49 C293.00,91.24 291.88,93.18 290.50,94.82 C286.98,99.00 287.35,100.66 292.50,103.77 C296.92,106.44 297.00,106.58 297.00,111.77 C297.00,117.15 295.13,123.18 293.07,124.46 C292.44,124.84 290.31,125.36 288.33,125.61 C286.35,125.85 284.33,126.29 283.86,126.59 C282.48,127.44 282.86,130.60 284.74,133.86 C286.41,136.78 286.40,136.99 284.41,139.69 C281.82,143.23 273.40,149.00 270.84,149.00 C269.78,149.00 267.86,147.88 266.59,146.50 C265.31,145.12 263.25,144.00 262.00,144.00 C259.94,144.00 259.79,144.34 260.36,147.75 C260.71,149.81 261.29,155.23 261.65,159.80 C262.30,168.02 262.34,168.11 265.60,169.48 C276.13,173.88 286.58,184.17 290.49,194.00 C292.71,199.58 292.82,209.52 290.71,213.55 C288.74,217.32 283.46,222.29 279.09,224.50 C275.73,226.19 269.88,226.18 262.93,224.47 C260.50,223.87 260.29,224.13 259.14,229.27 C258.47,232.26 256.59,237.27 254.96,240.41 C253.33,243.55 252.00,246.54 252.00,247.05 C252.00,247.56 253.55,248.62 255.43,249.41 C259.76,251.22 263.59,256.95 265.06,263.82 C266.95,272.66 264.48,280.52 258.70,284.04 C254.65,286.51 252.41,286.50 247.50,284.00 C244.71,282.58 241.60,282.00 236.76,282.00 C228.58,282.00 222.30,279.23 215.01,272.42 C209.61,267.36 206.94,266.88 204.95,270.60 C204.18,272.03 202.38,274.18 200.94,275.39 C199.08,276.96 198.14,278.96 197.68,282.30 C196.48,291.06 190.36,299.25 181.51,303.90 ZM 175.50 273.28 C180.75,274.56 190.20,273.94 193.86,272.07 C199.44,269.22 200.45,267.47 201.00,259.60 C201.46,253.05 201.68,252.47 203.89,252.16 C206.78,251.75 207.96,253.40 207.98,257.86 L 208.00 261.23 L 212.51 260.55 C218.65,259.63 230.38,255.55 235.48,252.57 C244.99,246.99 253.10,233.67 253.82,222.43 C254.19,216.67 254.05,216.22 251.14,213.78 C248.34,211.41 244.56,209.75 236.50,207.35 C234.48,206.74 233.50,205.81 233.50,204.48 C233.50,202.90 234.29,202.44 237.42,202.18 C243.50,201.68 249.55,204.62 257.67,212.03 C265.54,219.20 269.11,220.69 274.63,219.11 C289.74,214.77 290.00,196.43 275.15,182.85 C266.86,175.27 258.34,171.47 246.83,170.20 C241.31,169.59 240.46,169.22 240.19,167.29 C239.79,164.50 243.12,163.49 249.52,164.45 C255.28,165.31 255.57,164.58 254.22,152.65 C250.97,124.00 233.33,104.52 204.74,97.98 C196.25,96.04 193.12,95.82 180.74,96.28 C164.23,96.89 157.94,98.52 146.29,105.18 C131.49,113.65 121.29,127.30 114.52,147.75 C111.84,155.85 110.93,156.88 108.07,155.07 C106.85,154.29 106.84,153.36 107.96,148.66 L 109.28 143.16 L 105.54 138.83 C103.48,136.45 100.77,132.02 99.51,129.00 C95.85,120.17 89.50,117.09 81.67,120.36 C70.20,125.16 69.23,140.99 79.22,160.38 C83.54,168.77 96.17,183.00 99.29,183.00 C100.12,183.00 101.27,181.65 101.85,180.00 C102.98,176.76 103.06,176.70 105.42,177.61 C106.77,178.12 107.00,180.52 107.00,193.92 C107.00,211.46 108.71,220.53 113.94,230.87 C116.97,236.84 124.27,244.84 130.86,249.40 C135.45,252.58 152.66,258.83 157.93,259.23 L 161.50 259.50 L 162.15 250.21 C163.23,234.88 169.20,225.82 180.43,222.47 C192.50,218.87 208.00,222.88 208.00,229.60 C208.00,232.89 206.20,233.52 203.15,231.29 C195.07,225.37 182.21,225.57 175.74,231.73 C171.16,236.07 169.60,239.88 168.84,248.50 C168.46,252.90 167.83,259.03 167.46,262.11 C166.79,267.63 166.83,267.77 170.14,270.26 C171.99,271.66 174.40,273.01 175.50,273.28 ZM 268.14 139.97 C271.11,142.44 271.76,142.45 275.77,140.00 L 279.03 138.01 L 277.52 134.38 C275.46,129.45 275.59,128.07 278.54,123.73 C280.75,120.47 281.57,120.00 285.06,120.00 C288.42,120.00 289.20,119.60 290.02,117.43 C290.56,116.02 291.00,113.58 291.00,112.01 C291.00,109.65 290.41,108.96 287.58,108.03 C285.14,107.22 283.85,106.01 283.08,103.80 C281.40,98.97 281.76,94.53 284.00,92.50 C286.47,90.27 286.50,88.21 284.12,85.12 C282.59,83.12 281.73,82.84 278.89,83.40 C273.33,84.48 271.95,84.24 267.88,81.42 C264.95,79.38 264.00,78.05 264.00,75.95 C264.00,70.86 263.15,70.00 258.10,70.00 C253.68,70.00 253.36,70.18 252.46,73.25 C251.60,76.18 250.92,76.64 245.70,77.88 C240.17,79.19 239.79,79.15 237.64,77.13 C234.88,74.53 232.27,74.46 229.13,76.87 C226.92,78.57 226.84,78.93 228.04,82.24 C229.63,86.62 228.20,90.81 223.89,94.44 L 221.04 96.83 L 226.51 99.92 C229.51,101.61 232.41,103.00 232.95,103.00 C233.48,103.00 235.36,100.81 237.11,98.13 C240.77,92.54 243.96,90.35 249.79,89.42 C255.78,88.46 260.57,89.68 264.57,93.19 C273.39,100.94 273.08,114.70 263.90,122.43 C262.15,123.90 259.39,125.37 257.77,125.70 C253.85,126.48 253.54,127.77 255.92,133.32 C257.82,137.76 258.13,138.00 261.85,138.00 C264.29,138.00 266.67,138.75 268.14,139.97 ZM 164.50 297.75 C171.19,303.51 185.28,297.75 189.56,287.50 C192.38,280.75 191.85,280.00 184.25,279.99 C172.30,279.98 164.26,276.25 161.39,269.39 C160.54,267.36 159.10,265.84 157.74,265.55 C156.51,265.28 152.43,264.33 148.68,263.43 C144.93,262.53 141.70,261.97 141.49,262.17 C140.27,263.40 145.89,271.96 152.37,278.74 C158.33,284.97 160.11,287.55 160.90,291.06 C161.49,293.72 162.94,296.40 164.50,297.75 ZM 248.51 277.57 C253.50,280.60 254.10,280.59 257.04,277.45 C260.31,273.98 260.24,266.08 256.89,259.32 C254.94,255.39 253.85,254.34 250.97,253.63 C247.80,252.84 246.59,253.25 238.87,257.68 C234.15,260.38 227.51,263.44 224.12,264.46 L 217.96 266.33 L 220.23 268.76 C221.48,270.10 224.45,272.33 226.82,273.73 C230.66,275.99 231.90,276.21 237.83,275.72 C243.71,275.22 245.00,275.45 248.51,277.57 ZM 175.72 164.61 C171.94,168.73 167.03,170.04 160.00,168.81 C154.56,167.85 151.32,165.58 148.85,160.98 C146.40,156.42 146.51,151.89 149.14,148.54 C150.98,146.22 151.82,145.90 154.89,146.37 C161.91,147.45 172.52,148.90 173.75,148.95 C176.45,149.06 179.00,152.98 179.00,157.01 C179.00,160.16 178.29,161.81 175.72,164.61 ZM 245.77 115.75 C251.99,122.48 255.06,122.76 260.96,117.15 C264.54,113.75 265.00,112.78 265.00,108.72 C265.00,99.59 261.19,95.59 252.69,95.78 C246.88,95.91 243.49,97.90 241.33,102.44 C239.17,106.96 240.04,109.55 245.77,115.75 ZM 157.44 163.51 C158.51,164.33 161.36,165.00 163.77,165.00 C167.28,165.00 168.73,164.42 171.08,162.08 C175.75,157.40 175.05,156.00 168.02,156.00 C162.76,156.00 161.64,156.36 158.77,159.01 C155.59,161.92 155.56,162.05 157.44,163.51 ZM 151.80 138.80 C149.01,141.59 143.00,139.06 143.00,135.08 C143.00,132.80 146.10,130.00 148.63,130.00 C151.34,130.00 153.00,131.90 153.00,135.00 C153.00,136.43 152.46,138.14 151.80,138.80 ZM 185.80 143.80 C184.03,145.57 180.55,145.26 178.65,143.17 C176.50,140.79 176.56,138.71 178.83,136.65 C182.48,133.35 187.00,135.20 187.00,140.00 C187.00,141.43 186.46,143.14 185.80,143.80 Z" fill="rgb(53,63,101)"/>
<path d="M 175.50 273.28 C174.40,273.01 171.99,271.66 170.14,270.26 C166.83,267.77 166.79,267.63 167.46,262.11 C167.83,259.03 168.46,252.90 168.84,248.50 C169.60,239.88 171.16,236.07 175.74,231.73 C182.21,225.57 195.07,225.37 203.15,231.29 C206.20,233.52 208.00,232.89 208.00,229.60 C208.00,222.88 192.50,218.87 180.43,222.47 C169.20,225.82 163.23,234.88 162.15,250.21 L 161.50 259.50 L 157.93 259.23 C152.66,258.83 135.45,252.58 130.86,249.40 C124.27,244.84 116.97,236.84 113.94,230.87 C108.71,220.53 107.00,211.46 107.00,193.92 C107.00,180.52 106.77,178.12 105.42,177.61 C103.06,176.70 102.98,176.76 101.85,180.00 C101.27,181.65 100.12,183.00 99.29,183.00 C96.17,183.00 83.54,168.77 79.22,160.38 C69.23,140.99 70.20,125.16 81.67,120.36 C89.50,117.09 95.85,120.17 99.51,129.00 C100.77,132.02 103.48,136.45 105.54,138.83 L 109.28 143.16 L 107.96 148.66 C106.84,153.36 106.85,154.29 108.07,155.07 C110.93,156.88 111.84,155.85 114.52,147.75 C121.29,127.30 131.49,113.65 146.29,105.18 C157.94,98.52 164.23,96.89 180.74,96.28 C193.12,95.82 196.25,96.04 204.74,97.98 C233.33,104.52 250.97,124.00 254.22,152.65 C255.57,164.58 255.28,165.31 249.52,164.45 C243.12,163.49 239.79,164.50 240.19,167.29 C240.46,169.22 241.31,169.59 246.83,170.20 C258.34,171.47 266.86,175.27 275.15,182.85 C290.00,196.43 289.74,214.77 274.63,219.11 C269.11,220.69 265.54,219.20 257.67,212.03 C249.55,204.62 243.50,201.68 237.42,202.18 C234.29,202.44 233.50,202.90 233.50,204.48 C233.50,205.81 234.48,206.74 236.50,207.35 C244.56,209.75 248.34,211.41 251.14,213.78 C254.05,216.22 254.19,216.67 253.82,222.43 C253.10,233.67 244.99,246.99 235.48,252.57 C230.38,255.55 218.65,259.63 212.51,260.55 L 208.00 261.23 L 207.98 257.86 C207.96,253.40 206.78,251.75 203.89,252.16 C201.68,252.47 201.46,253.05 201.00,259.60 C200.45,267.47 199.44,269.22 193.86,272.07 C190.20,273.94 180.75,274.56 175.50,273.28 ZM 268.14 139.97 C266.67,138.75 264.29,138.00 261.85,138.00 C258.13,138.00 257.82,137.76 255.92,133.32 C253.54,127.77 253.85,126.48 257.77,125.70 C259.39,125.37 262.15,123.90 263.90,122.43 C273.08,114.70 273.39,100.94 264.57,93.19 C260.57,89.68 255.78,88.46 249.79,89.42 C243.96,90.35 240.77,92.54 237.11,98.13 C235.36,100.81 233.48,103.00 232.95,103.00 C232.41,103.00 229.51,101.61 226.51,99.92 L 221.04 96.83 L 223.89 94.44 C228.20,90.81 229.63,86.62 228.04,82.24 C226.84,78.93 226.92,78.57 229.13,76.87 C232.27,74.46 234.88,74.53 237.64,77.13 C239.79,79.15 240.17,79.19 245.70,77.88 C250.92,76.64 251.60,76.18 252.46,73.25 C253.36,70.18 253.68,70.00 258.10,70.00 C263.15,70.00 264.00,70.86 264.00,75.95 C264.00,78.05 264.95,79.38 267.88,81.42 C271.95,84.24 273.33,84.48 278.89,83.40 C281.73,82.84 282.59,83.12 284.12,85.12 C286.50,88.21 286.47,90.27 284.00,92.50 C281.76,94.53 281.40,98.97 283.08,103.80 C283.85,106.01 285.14,107.22 287.58,108.03 C290.41,108.96 291.00,109.65 291.00,112.01 C291.00,113.58 290.56,116.02 290.02,117.43 C289.20,119.60 288.42,120.00 285.06,120.00 C281.57,120.00 280.75,120.47 278.54,123.73 C275.59,128.07 275.46,129.45 277.52,134.38 L 279.03 138.01 L 275.77 140.00 C271.76,142.45 271.11,142.44 268.14,139.97 ZM 164.50 297.75 C162.94,296.40 161.49,293.72 160.90,291.06 C160.11,287.55 158.33,284.97 152.37,278.74 C145.89,271.96 140.27,263.40 141.49,262.17 C141.70,261.97 144.93,262.53 148.68,263.43 C152.43,264.33 156.51,265.28 157.74,265.55 C159.10,265.84 160.54,267.36 161.39,269.39 C164.26,276.25 172.30,279.98 184.25,279.99 C191.85,280.00 192.38,280.75 189.56,287.50 C185.28,297.75 171.19,303.51 164.50,297.75 ZM 248.51 277.57 C245.00,275.45 243.71,275.22 237.83,275.72 C231.90,276.21 230.66,275.99 226.82,273.73 C224.45,272.33 221.48,270.10 220.23,268.76 L 217.96 266.33 L 224.12 264.46 C227.51,263.44 234.15,260.38 238.87,257.68 C246.59,253.25 247.80,252.84 250.97,253.63 C253.85,254.34 254.94,255.39 256.89,259.32 C260.24,266.08 260.31,273.98 257.04,277.45 C254.10,280.59 253.50,280.60 248.51,277.57 ZM 175.72 164.61 C178.29,161.81 179.00,160.16 179.00,157.01 C179.00,152.98 176.45,149.06 173.75,148.95 C172.52,148.90 161.91,147.45 154.89,146.37 C151.82,145.90 150.98,146.22 149.14,148.54 C146.51,151.89 146.40,156.42 148.85,160.98 C151.32,165.58 154.56,167.85 160.00,168.81 C167.03,170.04 171.94,168.73 175.72,164.61 ZM 126.50 153.31 C128.15,154.20 131.21,154.94 133.30,154.96 C143.18,155.06 147.57,147.18 140.80,141.49 C137.90,139.04 137.00,138.83 131.18,139.20 C123.97,139.66 121.99,141.22 122.02,146.44 C122.03,150.24 122.72,151.29 126.50,153.31 ZM 188.23 161.45 C189.59,162.40 192.60,163.00 196.05,163.00 C200.59,163.00 202.03,162.57 203.68,160.75 C206.76,157.33 207.18,155.11 205.34,151.99 C202.41,147.04 195.43,145.54 188.57,148.41 C182.92,150.77 182.74,157.60 188.23,161.45 ZM 151.80 138.80 C152.46,138.14 153.00,136.43 153.00,135.00 C153.00,131.90 151.34,130.00 148.63,130.00 C146.10,130.00 143.00,132.80 143.00,135.08 C143.00,139.06 149.01,141.59 151.80,138.80 ZM 185.80 143.80 C186.46,143.14 187.00,141.43 187.00,140.00 C187.00,135.20 182.48,133.35 178.83,136.65 C176.56,138.71 176.50,140.79 178.65,143.17 C180.55,145.26 184.03,145.57 185.80,143.80 Z" fill="rgb(135,193,228)"/>
<path d="M 126.50 153.31 C122.72,151.29 122.03,150.24 122.02,146.44 C121.99,141.22 123.97,139.66 131.18,139.20 C137.00,138.83 137.90,139.04 140.80,141.49 C147.57,147.18 143.18,155.06 133.30,154.96 C131.21,154.94 128.15,154.20 126.50,153.31 ZM 188.23 161.45 C182.74,157.60 182.92,150.77 188.57,148.41 C195.43,145.54 202.41,147.04 205.34,151.99 C207.18,155.11 206.76,157.33 203.68,160.75 C202.03,162.57 200.59,163.00 196.05,163.00 C192.60,163.00 189.59,162.40 188.23,161.45 ZM 157.44 163.51 C155.56,162.05 155.59,161.92 158.77,159.01 C161.64,156.36 162.76,156.00 168.02,156.00 C175.05,156.00 175.75,157.40 171.08,162.08 C168.73,164.42 167.28,165.00 163.77,165.00 C161.36,165.00 158.51,164.33 157.44,163.51 Z" fill="rgb(168,168,187)"/>
<path d="M 0.00 180.50 L 0.00 0.00 L 183.50 0.00 L 367.00 0.00 L 367.00 180.50 L 367.00 361.00 L 183.50 361.00 L 0.00 361.00 L 0.00 180.50 ZM 207.00 357.54 C248.69,351.92 283.32,334.22 313.06,303.35 C335.76,279.79 352.37,247.61 359.07,214.25 C361.65,201.39 362.62,175.85 361.08,161.67 C354.52,101.47 316.96,48.24 262.54,21.99 C236.68,9.51 212.61,4.00 184.00,4.00 C139.45,4.00 96.87,20.30 64.07,49.89 C35.42,75.75 16.45,110.33 8.34,151.50 C5.60,165.43 5.90,199.84 8.88,213.88 C20.32,267.64 51.84,310.89 98.50,336.83 C130.72,354.74 170.92,362.41 207.00,357.54 ZM 164.00 350.98 C97.66,341.72 44.99,299.32 22.62,237.15 C17.30,222.38 13.00,198.14 13.00,182.95 C13.00,139.93 29.16,97.61 57.56,66.25 C83.33,37.80 120.86,18.08 160.00,12.43 C172.46,10.64 195.89,10.67 208.77,12.50 C252.47,18.71 292.78,42.20 319.46,77.01 C337.62,100.70 347.85,124.66 353.43,156.55 C357.51,179.86 353.43,217.81 344.38,240.83 C327.22,284.44 294.52,319.05 252.98,337.54 C231.77,346.98 213.47,350.94 188.50,351.49 C178.60,351.71 167.57,351.48 164.00,350.98 ZM 181.51 303.90 C190.36,299.25 196.48,291.06 197.68,282.30 C198.14,278.96 199.08,276.96 200.94,275.39 C202.38,274.18 204.18,272.03 204.95,270.60 C206.94,266.88 209.61,267.36 215.01,272.42 C222.30,279.23 228.58,282.00 236.76,282.00 C241.60,282.00 244.71,282.58 247.50,284.00 C252.41,286.50 254.65,286.51 258.70,284.04 C264.48,280.52 266.95,272.66 265.06,263.82 C263.59,256.95 259.76,251.22 255.43,249.41 C253.55,248.62 252.00,247.56 252.00,247.05 C252.00,246.54 253.33,243.55 254.96,240.41 C256.59,237.27 258.47,232.26 259.14,229.27 C260.29,224.13 260.50,223.87 262.93,224.47 C269.88,226.18 275.73,226.19 279.09,224.50 C283.46,222.29 288.74,217.32 290.71,213.55 C292.82,209.52 292.71,199.58 290.49,194.00 C286.58,184.17 276.13,173.88 265.60,169.48 C262.34,168.11 262.30,168.02 261.65,159.80 C261.29,155.23 260.71,149.81 260.36,147.75 C259.79,144.34 259.94,144.00 262.00,144.00 C263.25,144.00 265.31,145.12 266.59,146.50 C267.86,147.88 269.78,149.00 270.84,149.00 C273.40,149.00 281.82,143.23 284.41,139.69 C286.40,136.99 286.41,136.78 284.74,133.86 C282.86,130.60 282.48,127.44 283.86,126.59 C284.33,126.29 286.35,125.85 288.33,125.61 C290.31,125.36 292.44,124.84 293.07,124.46 C295.13,123.18 297.00,117.15 297.00,111.77 C297.00,106.58 296.92,106.44 292.50,103.77 C287.35,100.66 286.98,99.00 290.50,94.82 C291.88,93.18 293.00,91.24 293.00,90.49 C293.00,85.70 285.38,76.00 281.62,76.00 C280.53,76.00 278.18,76.53 276.39,77.18 C272.02,78.75 270.00,77.08 270.00,71.90 C270.00,67.06 267.17,64.97 259.15,63.85 C251.83,62.83 250.30,63.39 248.22,67.83 C246.14,72.25 243.11,73.02 239.36,70.07 C235.36,66.92 231.27,67.43 225.51,71.79 C219.89,76.04 219.25,77.69 221.04,83.13 C222.54,87.65 221.25,90.00 217.28,90.00 C215.92,90.00 213.56,90.74 212.03,91.64 C209.67,93.04 208.74,93.10 205.88,92.03 C200.87,90.17 177.38,89.51 168.22,90.96 C153.09,93.37 135.47,103.04 125.17,114.60 C122.35,117.77 118.19,123.90 115.94,128.24 C113.68,132.57 111.31,135.96 110.67,135.78 C110.03,135.59 107.93,132.23 106.00,128.31 C100.21,116.52 96.82,114.00 86.75,114.00 C66.43,114.00 60.36,135.68 73.33,161.91 C77.83,171.02 87.30,182.11 96.06,188.54 L 101.00 192.17 L 101.00 201.43 C101.00,224.29 110.87,243.35 129.08,255.63 C132.80,258.14 133.91,259.61 134.98,263.44 C136.85,270.10 142.75,278.77 149.34,284.56 C153.09,287.84 154.98,290.27 154.99,291.79 C155.01,295.90 158.83,301.86 162.76,303.94 C167.91,306.66 176.31,306.64 181.51,303.90 ZM 245.77 115.75 C240.04,109.55 239.17,106.96 241.33,102.44 C243.49,97.90 246.88,95.91 252.69,95.78 C261.19,95.59 265.00,99.59 265.00,108.72 C265.00,112.78 264.54,113.75 260.96,117.15 C255.06,122.76 251.99,122.48 245.77,115.75 Z" fill="rgb(252,252,252)"/>
</g>
</svg>