<svg xmlns="http://www.w3.org/2000/svg" width="366" height="365" viewBox="0 0 366 365">
<g>
<path d="M 207.78 359.50 C174.15,364.28 132.39,356.65 102.04,340.18 C84.57,330.70 63.29,313.97 52.28,301.07 C29.07,273.84 15.25,244.54 8.85,209.00 C6.62,196.61 7.17,166.06 9.89,151.50 C14.15,128.69 23.64,104.88 35.92,86.22 C47.57,68.52 66.93,48.30 81.50,38.60 C91.96,31.64 97.70,28.16 103.52,25.23 C155.01,-0.65 212.54,-1.09 264.50,23.99 C308.99,45.47 342.87,85.73 355.81,132.50 C362.04,155.00 362.50,158.60 362.45,183.50 C362.41,203.38 362.11,207.83 360.22,216.27 C354.05,243.86 346.57,262.07 333.14,282.15 C315.74,308.17 292.83,328.29 264.84,342.13 C246.61,351.14 229.10,356.47 207.78,359.50 ZM 169.50 353.59 C172.61,354.79 205.57,352.98 216.00,351.04 C264.05,342.12 305.67,313.47 331.05,271.86 C361.03,222.69 364.30,162.33 339.82,110.00 C324.10,76.38 296.21,47.70 263.04,31.02 C245.56,22.23 232.90,18.19 212.50,14.87 C201.23,13.04 196.84,12.84 179.50,13.31 C153.67,14.02 138.54,17.41 115.00,27.75 C80.25,43.02 48.38,73.45 32.55,106.50 C19.68,133.36 14.85,154.06 14.88,182.17 C14.92,205.56 18.10,223.99 25.37,242.80 C43.39,289.46 78.03,324.14 125.42,342.97 C134.07,346.40 144.48,349.09 158.50,351.49 C164.00,352.44 168.95,353.38 169.50,353.59 ZM 207.50 309.95 C205.85,310.75 201.80,311.55 198.50,311.74 C191.03,312.18 184.23,309.23 178.81,303.22 C175.36,299.39 172.00,291.29 172.00,286.79 C172.00,285.77 170.45,283.57 168.55,281.91 C166.65,280.24 164.82,278.00 164.48,276.94 C163.44,273.68 160.31,274.76 155.31,280.10 C148.30,287.59 142.56,290.19 133.66,289.89 C127.78,289.69 125.87,290.04 123.00,291.82 C118.69,294.50 115.45,294.57 111.37,292.08 C101.75,286.22 103.79,264.06 114.50,258.15 C116.15,257.24 117.68,256.39 117.91,256.26 C118.13,256.13 116.82,253.08 114.99,249.48 L 111.67 242.94 L 106.05 243.57 C96.71,244.63 88.12,239.29 84.23,230.01 C83.22,227.58 82.91,224.23 83.22,219.01 C83.92,207.35 89.88,197.05 100.94,188.37 L 106.50 184.00 L 106.65 170.75 C106.82,155.44 108.18,149.27 113.94,137.50 C122.73,119.54 139.29,106.97 161.52,101.38 C168.36,99.67 169.60,98.44 165.54,97.42 C164.19,97.08 162.51,96.11 161.80,95.26 C160.45,93.63 158.12,85.79 158.04,82.60 C158.02,81.56 155.95,78.51 153.44,75.83 C150.93,73.15 148.23,69.41 147.44,67.51 C143.66,58.46 147.86,46.66 156.79,41.26 C159.66,39.52 162.03,39.01 167.28,39.01 C175.37,39.00 179.63,40.59 183.33,44.98 C189.77,52.64 190.68,60.95 186.12,70.58 C183.55,76.02 183.30,77.42 183.75,83.81 C184.26,90.83 184.21,91.00 181.06,93.95 C179.29,95.60 178.09,97.34 178.39,97.82 C178.69,98.30 184.01,98.96 190.22,99.28 C201.68,99.88 206.46,101.08 218.03,106.29 C228.84,111.15 240.78,122.36 247.05,133.50 C248.29,135.70 249.94,138.54 250.71,139.81 L 252.12 142.12 L 253.99 139.74 C255.01,138.44 256.78,134.73 257.91,131.50 C261.34,121.76 267.23,117.00 275.87,117.00 C289.61,117.00 298.19,128.02 296.75,143.81 C295.18,160.94 284.68,179.35 268.89,192.66 L 265.27 195.70 L 264.75 209.10 C263.81,233.46 256.90,247.83 240.52,259.52 C235.28,263.26 234.10,264.64 233.53,267.71 C232.23,274.60 224.54,286.85 218.09,292.27 C216.25,293.82 215.00,295.82 215.00,297.22 C215.00,301.17 210.75,308.38 207.50,309.95 ZM 176.02 279.15 C183.14,282.97 198.07,280.48 201.01,274.97 C201.71,273.67 201.94,271.09 201.58,268.64 C201.24,266.36 200.57,261.09 200.10,256.92 C198.38,241.90 192.91,236.03 180.49,235.82 C175.33,235.73 173.00,236.23 168.99,238.31 C163.73,241.05 161.00,240.96 161.00,238.07 C161.00,233.46 170.56,229.00 180.43,229.00 C185.07,229.00 187.90,229.64 191.81,231.59 C201.18,236.26 205.05,243.29 206.50,258.25 C207.30,266.42 207.31,266.43 221.01,261.70 C237.35,256.07 245.93,249.01 252.40,235.88 C257.84,224.82 259.24,216.48 258.84,197.52 C258.53,182.77 258.64,181.52 260.31,181.19 C261.57,180.94 262.46,181.76 263.27,183.92 C263.91,185.61 264.92,187.00 265.51,187.00 C267.66,187.00 276.04,177.27 280.97,169.06 C287.11,158.83 290.00,149.97 290.00,141.36 C290.00,134.01 288.43,129.58 284.55,126.00 C282.37,123.99 280.80,123.50 276.52,123.50 C269.86,123.50 267.74,125.25 263.80,134.00 C262.19,137.57 259.58,142.52 258.01,145.00 C255.32,149.22 255.21,149.79 256.25,154.28 C257.59,160.10 256.46,161.98 252.65,160.25 C251.02,159.51 250.03,158.00 249.57,155.51 C248.65,150.59 244.32,140.61 240.47,134.50 C233.26,123.07 217.79,111.73 203.50,107.41 C195.05,104.86 173.44,104.81 162.71,107.33 C144.44,111.61 127.61,124.25 119.85,139.50 C114.77,149.47 113.57,154.89 113.53,168.00 L 113.50 179.50 L 118.50 179.50 C126.05,179.50 125.00,181.72 115.00,186.92 C99.21,195.14 89.91,207.39 89.64,220.34 C89.47,228.21 91.85,232.53 98.10,235.75 C102.01,237.76 103.25,237.95 106.92,237.13 C111.86,236.02 115.17,233.24 118.69,227.24 C123.28,219.45 132.40,213.35 138.23,214.18 C139.73,214.39 140.50,215.18 140.50,216.50 C140.50,217.96 138.89,219.26 134.50,221.32 C129.43,223.71 127.69,225.28 123.25,231.50 C120.36,235.54 118.00,239.58 118.00,240.46 C118.00,243.45 122.12,250.19 126.61,254.56 C132.06,259.86 139.00,263.33 149.41,265.99 C161.15,268.98 161.82,268.86 162.19,263.75 C162.47,259.97 162.77,259.50 165.00,259.50 C167.34,259.50 167.53,259.89 168.00,265.68 C168.57,272.72 170.70,276.30 176.02,279.15 ZM 192.50 304.94 C201.73,307.65 207.16,304.93 208.51,296.92 C209.10,293.43 210.53,291.14 215.40,285.88 C220.83,280.02 227.96,268.62 226.88,267.54 C226.66,267.33 222.45,268.19 217.52,269.47 C208.84,271.71 208.53,271.90 207.74,275.14 C206.01,282.32 196.68,287.31 184.82,287.41 C179.90,287.45 179.00,287.74 179.00,289.26 C179.00,294.88 186.02,303.04 192.50,304.94 ZM 159.32 74.74 C162.12,77.63 164.75,79.65 165.16,79.24 C166.77,77.62 163.90,69.56 160.77,66.95 C158.65,65.18 157.86,63.81 158.30,62.67 C159.17,60.40 162.30,60.56 164.50,63.00 C166.97,65.73 168.65,65.51 170.20,62.26 C171.61,59.33 174.56,58.16 176.25,59.85 C177.41,61.01 175.42,67.00 173.88,67.00 C173.40,67.00 173.00,68.60 173.00,70.57 C173.00,74.29 174.46,78.00 175.92,78.00 C177.40,78.00 184.00,62.95 183.98,59.65 C183.94,54.79 180.52,48.29 176.81,46.02 C169.80,41.75 157.53,44.33 153.71,50.87 C151.61,54.48 151.22,63.62 153.01,67.13 C153.68,68.43 156.52,71.86 159.32,74.74 ZM 113.73 285.45 C116.75,288.25 119.06,288.09 122.62,284.83 C124.47,283.14 125.70,282.97 132.12,283.50 C139.08,284.08 139.79,283.94 144.71,281.06 C150.28,277.79 153.09,274.31 150.79,273.53 C150.08,273.28 146.57,272.13 143.00,270.97 C139.43,269.80 133.73,267.31 130.34,265.42 C126.95,263.54 123.11,262.00 121.81,262.00 C116.15,262.00 111.06,269.64 111.02,278.21 C111.00,282.07 111.49,283.38 113.73,285.45 ZM 209.76 171.75 C208.19,173.43 206.52,174.00 203.21,174.00 C199.38,174.00 198.23,173.46 194.88,170.12 C191.64,166.88 191.00,165.56 191.00,162.15 C191.00,157.10 191.89,156.56 202.93,154.95 C210.72,153.81 211.42,153.85 212.66,155.55 C215.34,159.21 213.88,167.35 209.76,171.75 ZM 186.00 152.50 C185.32,153.32 183.91,154.00 182.88,154.00 C180.63,154.00 177.00,150.60 177.00,148.50 C177.00,146.65 180.53,143.00 182.31,143.00 C186.45,143.00 188.82,149.10 186.00,152.50 ZM 218.80 145.80 C216.89,147.71 213.25,147.20 211.56,144.78 C209.54,141.90 209.59,140.68 211.83,138.65 C215.48,135.35 220.00,137.20 220.00,142.00 C220.00,143.43 219.46,145.14 218.80,145.80 ZM 197.94 166.94 C201.11,170.11 207.00,169.45 207.00,165.93 C207.00,163.50 203.71,161.80 199.78,162.19 C195.90,162.58 195.25,164.25 197.94,166.94 ZM 163.45 85.91 C164.28,87.25 164.63,87.26 171.20,85.93 C179.39,84.29 179.61,84.17 177.93,82.55 C176.80,81.46 175.25,81.37 170.50,82.14 C164.16,83.16 162.34,84.13 163.45,85.91 ZM 166.00 91.63 C166.00,93.30 170.44,93.44 174.85,91.90 C178.51,90.63 179.01,89.00 175.75,89.01 C170.76,89.04 166.00,90.31 166.00,91.63 ZM 185.81 37.04 C183.39,40.31 182.21,40.72 181.39,38.58 C180.61,36.55 183.88,32.00 186.12,32.00 C188.58,32.00 188.50,33.41 185.81,37.04 ZM 147.74 43.29 C147.06,45.33 145.22,45.10 142.36,42.62 C140.16,40.71 139.77,39.86 140.67,38.95 C141.58,38.03 142.56,38.26 144.97,39.98 C146.69,41.20 147.94,42.69 147.74,43.29 ZM 165.99 33.25 C166.00,34.97 163.97,35.64 162.67,34.33 C161.36,33.03 161.95,27.00 163.38,27.00 C164.76,27.00 165.96,29.89 165.99,33.25 ZM 142.83 61.68 C142.58,62.99 141.41,63.59 138.66,63.82 C135.41,64.08 134.88,63.85 135.17,62.32 C135.42,61.01 136.59,60.41 139.34,60.18 C142.59,59.92 143.12,60.15 142.83,61.68 ZM 196.75 55.37 C192.64,56.47 190.83,56.11 191.18,54.25 C191.62,51.96 199.00,51.09 199.00,53.32 C199.00,54.12 197.99,55.04 196.75,55.37 ZM 168.11 74.51 C168.84,77.41 169.62,78.78 170.21,78.19 C171.31,77.09 170.18,68.00 168.95,68.00 C167.24,68.00 166.98,70.03 168.11,74.51 ZM 161.00 64.38 C161.00,65.27 161.68,66.00 162.50,66.00 C163.32,66.00 164.00,65.83 164.00,65.62 C164.00,65.41 163.32,64.68 162.50,64.00 C161.27,62.98 161.00,63.05 161.00,64.38 ZM 172.00 62.56 C172.00,63.42 172.45,63.84 173.00,63.50 C173.55,63.16 174.00,62.46 174.00,61.94 C174.00,61.42 173.55,61.00 173.00,61.00 C172.45,61.00 172.00,61.70 172.00,62.56 Z" fill="rgb(52,59,92)"/>
<path d="M 197.94 166.94 C195.25,164.25 195.90,162.58 199.78,162.19 C203.71,161.80 207.00,163.50 207.00,165.93 C207.00,169.45 201.11,170.11 197.94,166.94 ZM 163.45 85.91 C162.34,84.13 164.16,83.16 170.50,82.14 C175.25,81.37 176.80,81.46 177.93,82.55 C179.61,84.17 179.39,84.29 171.20,85.93 C164.63,87.26 164.28,87.25 163.45,85.91 ZM 166.00 91.63 C166.00,90.31 170.76,89.04 175.75,89.01 C179.01,89.00 178.51,90.63 174.85,91.90 C170.44,93.44 166.00,93.30 166.00,91.63 ZM 161.00 64.38 C161.00,63.05 161.27,62.98 162.50,64.00 C163.32,64.68 164.00,65.41 164.00,65.62 C164.00,65.83 163.32,66.00 162.50,66.00 C161.68,66.00 161.00,65.27 161.00,64.38 ZM 172.00 62.56 C172.00,61.70 172.45,61.00 173.00,61.00 C173.55,61.00 174.00,61.42 174.00,61.94 C174.00,62.46 173.55,63.16 173.00,63.50 C172.45,63.84 172.00,63.42 172.00,62.56 Z" fill="rgb(165,167,175)"/>
<path d="M 176.02 279.15 C170.70,276.30 168.57,272.72 168.00,265.68 C167.53,259.89 167.34,259.50 165.00,259.50 C162.77,259.50 162.47,259.97 162.19,263.75 C161.82,268.86 161.15,268.98 149.41,265.99 C139.00,263.33 132.06,259.86 126.61,254.56 C122.12,250.19 118.00,243.45 118.00,240.46 C118.00,239.58 120.36,235.54 123.25,231.50 C127.69,225.28 129.43,223.71 134.50,221.32 C138.89,219.26 140.50,217.96 140.50,216.50 C140.50,215.18 139.73,214.39 138.23,214.18 C132.40,213.35 123.28,219.45 118.69,227.24 C115.17,233.24 111.86,236.02 106.92,237.13 C103.25,237.95 102.01,237.76 98.10,235.75 C91.85,232.53 89.47,228.21 89.64,220.34 C89.91,207.39 99.21,195.14 115.00,186.92 C125.00,181.72 126.05,179.50 118.50,179.50 L 113.50 179.50 L 113.53 168.00 C113.57,154.89 114.77,149.47 119.85,139.50 C127.61,124.25 144.44,111.61 162.71,107.33 C173.44,104.81 195.05,104.86 203.50,107.41 C217.79,111.73 233.26,123.07 240.47,134.50 C244.32,140.61 248.65,150.59 249.57,155.51 C250.03,158.00 251.02,159.51 252.65,160.25 C256.46,161.98 257.59,160.10 256.25,154.28 C255.21,149.79 255.32,149.22 258.01,145.00 C259.58,142.52 262.19,137.57 263.80,134.00 C267.74,125.25 269.86,123.50 276.52,123.50 C280.80,123.50 282.37,123.99 284.55,126.00 C288.43,129.58 290.00,134.01 290.00,141.36 C290.00,149.97 287.11,158.83 280.97,169.06 C276.04,177.27 267.66,187.00 265.51,187.00 C264.92,187.00 263.91,185.61 263.27,183.92 C262.46,181.76 261.57,180.94 260.31,181.19 C258.64,181.52 258.53,182.77 258.84,197.52 C259.24,216.48 257.84,224.82 252.40,235.88 C245.93,249.01 237.35,256.07 221.01,261.70 C207.31,266.43 207.30,266.42 206.50,258.25 C205.05,243.29 201.18,236.26 191.81,231.59 C187.90,229.64 185.07,229.00 180.43,229.00 C170.56,229.00 161.00,233.46 161.00,238.07 C161.00,240.96 163.73,241.05 168.99,238.31 C173.00,236.23 175.33,235.73 180.49,235.82 C192.91,236.03 198.38,241.90 200.10,256.92 C200.57,261.09 201.24,266.36 201.58,268.64 C201.94,271.09 201.71,273.67 201.01,274.97 C198.07,280.48 183.14,282.97 176.02,279.15 ZM 192.50 304.94 C186.02,303.04 179.00,294.88 179.00,289.26 C179.00,287.74 179.90,287.45 184.82,287.41 C196.68,287.31 206.01,282.32 207.74,275.14 C208.53,271.90 208.84,271.71 217.52,269.47 C222.45,268.19 226.66,267.33 226.88,267.54 C227.96,268.62 220.83,280.02 215.40,285.88 C210.53,291.14 209.10,293.43 208.51,296.92 C207.16,304.93 201.73,307.65 192.50,304.94 ZM 159.32 74.74 C156.52,71.86 153.68,68.43 153.01,67.13 C151.22,63.62 151.61,54.48 153.71,50.87 C157.53,44.33 169.80,41.75 176.81,46.02 C180.52,48.29 183.94,54.79 183.98,59.65 C184.00,62.95 177.40,78.00 175.92,78.00 C174.46,78.00 173.00,74.29 173.00,70.57 C173.00,68.60 173.40,67.00 173.88,67.00 C175.42,67.00 177.41,61.01 176.25,59.85 C174.56,58.16 171.61,59.33 170.20,62.26 C168.65,65.51 166.97,65.73 164.50,63.00 C162.30,60.56 159.17,60.40 158.30,62.67 C157.86,63.81 158.65,65.18 160.77,66.95 C163.90,69.56 166.77,77.62 165.16,79.24 C164.75,79.65 162.12,77.63 159.32,74.74 ZM 113.73 285.45 C111.49,283.38 111.00,282.07 111.02,278.21 C111.06,269.64 116.15,262.00 121.81,262.00 C123.11,262.00 126.95,263.54 130.34,265.42 C133.73,267.31 139.43,269.80 143.00,270.97 C146.57,272.13 150.08,273.28 150.79,273.53 C153.09,274.31 150.28,277.79 144.71,281.06 C139.79,283.94 139.08,284.08 132.12,283.50 C125.70,282.97 124.47,283.14 122.62,284.83 C119.06,288.09 116.75,288.25 113.73,285.45 ZM 209.76 171.75 C213.88,167.35 215.34,159.21 212.66,155.55 C211.42,153.85 210.72,153.81 202.93,154.95 C191.89,156.56 191.00,157.10 191.00,162.15 C191.00,165.56 191.64,166.88 194.88,170.12 C198.23,173.46 199.38,174.00 203.21,174.00 C206.52,174.00 208.19,173.43 209.76,171.75 ZM 186.00 152.50 C188.82,149.10 186.45,143.00 182.31,143.00 C180.53,143.00 177.00,146.65 177.00,148.50 C177.00,150.60 180.63,154.00 182.88,154.00 C183.91,154.00 185.32,153.32 186.00,152.50 ZM 218.80 145.80 C219.46,145.14 220.00,143.43 220.00,142.00 C220.00,137.20 215.48,135.35 211.83,138.65 C209.59,140.68 209.54,141.90 211.56,144.78 C213.25,147.20 216.89,147.71 218.80,145.80 ZM 168.11 74.51 C166.98,70.03 167.24,68.00 168.95,68.00 C170.18,68.00 171.31,77.09 170.21,78.19 C169.62,78.78 168.84,77.41 168.11,74.51 Z" fill="rgb(247,223,133)"/>
<path d="M 0.00 182.50 L 0.00 0.00 L 183.00 0.00 L 366.00 0.00 L 366.00 182.50 L 366.00 365.00 L 183.00 365.00 L 0.00 365.00 L 0.00 182.50 ZM 207.78 359.50 C229.10,356.47 246.61,351.14 264.84,342.13 C292.83,328.29 315.74,308.17 333.14,282.15 C346.57,262.07 354.05,243.86 360.22,216.27 C362.11,207.83 362.41,203.38 362.45,183.50 C362.50,158.60 362.04,155.00 355.81,132.50 C342.87,85.73 308.99,45.47 264.50,23.99 C212.54,-1.09 155.01,-0.65 103.52,25.23 C97.70,28.16 91.96,31.64 81.50,38.60 C66.93,48.30 47.57,68.52 35.92,86.22 C23.64,104.88 14.15,128.69 9.89,151.50 C7.17,166.06 6.62,196.61 8.85,209.00 C15.25,244.54 29.07,273.84 52.28,301.07 C63.29,313.97 84.57,330.70 102.04,340.18 C132.39,356.65 174.15,364.28 207.78,359.50 ZM 169.50 353.59 C168.95,353.38 164.00,352.44 158.50,351.49 C144.48,349.09 134.07,346.40 125.42,342.97 C78.03,324.14 43.39,289.46 25.37,242.80 C18.10,223.99 14.92,205.56 14.88,182.17 C14.85,154.06 19.68,133.36 32.55,106.50 C48.38,73.45 80.25,43.02 115.00,27.75 C138.54,17.41 153.67,14.02 179.50,13.31 C196.84,12.84 201.23,13.04 212.50,14.87 C232.90,18.19 245.56,22.23 263.04,31.02 C296.21,47.70 324.10,76.38 339.82,110.00 C364.30,162.33 361.03,222.69 331.05,271.86 C305.67,313.47 264.05,342.12 216.00,351.04 C205.57,352.98 172.61,354.79 169.50,353.59 ZM 207.50 309.95 C210.75,308.38 215.00,301.17 215.00,297.22 C215.00,295.82 216.25,293.82 218.09,292.27 C224.54,286.85 232.23,274.60 233.53,267.71 C234.10,264.64 235.28,263.26 240.52,259.52 C256.90,247.83 263.81,233.46 264.75,209.10 L 265.27 195.70 L 268.89 192.66 C284.68,179.35 295.18,160.94 296.75,143.81 C298.19,128.02 289.61,117.00 275.87,117.00 C267.23,117.00 261.34,121.76 257.91,131.50 C256.78,134.73 255.01,138.44 253.99,139.74 L 252.12 142.12 L 250.71 139.81 C249.94,138.54 248.29,135.70 247.05,133.50 C240.78,122.36 228.84,111.15 218.03,106.29 C206.46,101.08 201.68,99.88 190.22,99.28 C184.01,98.96 178.69,98.30 178.39,97.82 C178.09,97.34 179.29,95.60 181.06,93.95 C184.21,91.00 184.26,90.83 183.75,83.81 C183.30,77.42 183.55,76.02 186.12,70.58 C190.68,60.95 189.77,52.64 183.33,44.98 C179.63,40.59 175.37,39.00 167.28,39.01 C162.03,39.01 159.66,39.52 156.79,41.26 C147.86,46.66 143.66,58.46 147.44,67.51 C148.23,69.41 150.93,73.15 153.44,75.83 C155.95,78.51 158.02,81.56 158.04,82.60 C158.12,85.79 160.45,93.63 161.80,95.26 C162.51,96.11 164.19,97.08 165.54,97.42 C169.60,98.44 168.36,99.67 161.52,101.38 C139.29,106.97 122.73,119.54 113.94,137.50 C108.18,149.27 106.82,155.44 106.65,170.75 L 106.50 184.00 L 100.94 188.37 C89.88,197.05 83.92,207.35 83.22,219.01 C82.91,224.23 83.22,227.58 84.23,230.01 C88.12,239.29 96.71,244.63 106.05,243.57 L 111.67 242.94 L 114.99 249.48 C116.82,253.08 118.13,256.13 117.91,256.26 C117.68,256.39 116.15,257.24 114.50,258.15 C103.79,264.06 101.75,286.22 111.37,292.08 C115.45,294.57 118.69,294.50 123.00,291.82 C125.87,290.04 127.78,289.69 133.66,289.89 C142.56,290.19 148.30,287.59 155.31,280.10 C160.31,274.76 163.44,273.68 164.48,276.94 C164.82,278.00 166.65,280.24 168.55,281.91 C170.45,283.57 172.00,285.77 172.00,286.79 C172.00,291.29 175.36,299.39 178.81,303.22 C184.23,309.23 191.03,312.18 198.50,311.74 C201.80,311.55 205.85,310.75 207.50,309.95 ZM 142.83 61.68 C143.12,60.15 142.59,59.92 139.34,60.18 C136.59,60.41 135.42,61.01 135.17,62.32 C134.88,63.85 135.41,64.08 138.66,63.82 C141.41,63.59 142.58,62.99 142.83,61.68 ZM 196.75 55.37 C197.99,55.04 199.00,54.12 199.00,53.32 C199.00,51.09 191.62,51.96 191.18,54.25 C190.83,56.11 192.64,56.47 196.75,55.37 ZM 147.74 43.29 C147.94,42.69 146.69,41.20 144.97,39.98 C142.56,38.26 141.58,38.03 140.67,38.95 C139.77,39.86 140.16,40.71 142.36,42.62 C145.22,45.10 147.06,45.33 147.74,43.29 ZM 185.81 37.04 C188.50,33.41 188.58,32.00 186.12,32.00 C183.88,32.00 180.61,36.55 181.39,38.58 C182.21,40.72 183.39,40.31 185.81,37.04 ZM 165.99 33.25 C165.96,29.89 164.76,27.00 163.38,27.00 C161.95,27.00 161.36,33.03 162.67,34.33 C163.97,35.64 166.00,34.97 165.99,33.25 Z" fill="rgb(250,251,251)"/>
</g>
</svg>